<mxfile host="app.diagrams.net" agent="Mozilla/5.0 (Macintosh; Intel Mac OS X 10_15_7) AppleWebKit/537.36 (KHTML, like Gecko) Chrome/133.0.0.0 Safari/537.36" version="26.1.0">
  <diagram name="第 1 页" id="VXm7Vor1Jm-pEMicB_s3">
    <mxGraphModel dx="819" dy="683" grid="1" gridSize="10" guides="1" tooltips="1" connect="1" arrows="1" fold="1" page="1" pageScale="1" pageWidth="827" pageHeight="1169" math="0" shadow="0">
      <root>
        <mxCell id="0" />
        <mxCell id="1" parent="0" />
        <mxCell id="3B8MAYeGz_wciXL-b6bd-3" value="" style="shape=cube;whiteSpace=wrap;html=1;boundedLbl=1;backgroundOutline=1;darkOpacity=0.05;darkOpacity2=0.1;size=30;rotation=0;movable=1;resizable=1;rotatable=1;deletable=1;editable=1;locked=0;connectable=1;container=0;" parent="1" vertex="1">
          <mxGeometry x="283.22" y="800" width="226.78" height="239.95" as="geometry" />
        </mxCell>
        <mxCell id="3B8MAYeGz_wciXL-b6bd-4" value="&lt;font style=&quot;font-size: 24px;&quot;&gt;&lt;font style=&quot;&quot;&gt;e&lt;/font&gt;&lt;sub style=&quot;&quot;&gt;1&lt;/sub&gt;&lt;/font&gt;" style="text;html=1;align=center;verticalAlign=middle;resizable=1;points=[];autosize=1;strokeColor=none;fillColor=none;movable=1;rotatable=1;deletable=1;editable=1;locked=0;connectable=1;container=0;" parent="1" vertex="1">
          <mxGeometry x="337.4038872723354" y="835.8" width="50" height="50" as="geometry" />
        </mxCell>
        <mxCell id="3B8MAYeGz_wciXL-b6bd-19" value="&lt;span style=&quot;font-family: &amp;quot;Microsoft Yahei&amp;quot;, Helvetica, Arial, sans-serif; text-align: start; text-wrap-mode: wrap; background-color: rgb(255, 255, 255);&quot;&gt;&lt;font style=&quot;color: rgb(0, 0, 0); font-size: 16px;&quot;&gt;②&lt;/font&gt;&lt;/span&gt;" style="text;html=1;align=center;verticalAlign=middle;resizable=0;points=[];autosize=1;strokeColor=none;fillColor=none;container=0;" parent="1" vertex="1">
          <mxGeometry x="513.0038872723354" y="978.9691357488184" width="40" height="30" as="geometry" />
        </mxCell>
        <mxCell id="3B8MAYeGz_wciXL-b6bd-25" value="" style="html=1;verticalLabelPosition=bottom;align=center;labelBackgroundColor=#ffffff;verticalAlign=top;strokeWidth=1;strokeColor=#000000;shadow=0;dashed=0;shape=mxgraph.ios7.icons.cloud;container=0;" parent="1" vertex="1">
          <mxGeometry x="519.55" y="754.7" width="250.45" height="140" as="geometry" />
        </mxCell>
        <mxCell id="3B8MAYeGz_wciXL-b6bd-26" value="" style="rounded=1;whiteSpace=wrap;html=1;container=0;" parent="1" vertex="1">
          <mxGeometry x="563.77" y="801" width="160" height="90.64" as="geometry" />
        </mxCell>
        <mxCell id="3B8MAYeGz_wciXL-b6bd-28" value="&lt;span style=&quot;font-family: &amp;quot;Microsoft Yahei&amp;quot;, Helvetica, Arial, sans-serif; font-style: normal; font-variant-ligatures: normal; font-variant-caps: normal; font-weight: 400; letter-spacing: normal; orphans: 2; text-align: start; text-indent: 0px; text-transform: none; widows: 2; word-spacing: 0px; -webkit-text-stroke-width: 0px; white-space: normal; background-color: rgb(255, 255, 255); text-decoration-thickness: initial; text-decoration-style: initial; text-decoration-color: initial; float: none; display: inline !important;&quot;&gt;&lt;font style=&quot;color: rgb(0, 0, 0); font-size: 16px;&quot;&gt;③&lt;/font&gt;&lt;/span&gt;" style="text;whiteSpace=wrap;html=1;container=0;" parent="1" vertex="1">
          <mxGeometry x="509.3610044185796" y="899.9882410777336" width="55.41186191040701" height="43.47656037807593" as="geometry" />
        </mxCell>
        <mxCell id="3B8MAYeGz_wciXL-b6bd-30" value="" style="rounded=1;whiteSpace=wrap;html=1;fillColor=#dae8fc;strokeColor=#6c8ebf;container=0;fontStyle=1" parent="1" vertex="1">
          <mxGeometry x="627.39" y="1123.55" width="41.14" height="30.45" as="geometry" />
        </mxCell>
        <mxCell id="3B8MAYeGz_wciXL-b6bd-31" value="&lt;font&gt;设备适配器&lt;/font&gt;" style="text;html=1;align=center;verticalAlign=middle;whiteSpace=wrap;rounded=0;fontStyle=1;container=0;" parent="1" vertex="1">
          <mxGeometry x="674" y="1137.41" width="70.63" height="11.41" as="geometry" />
        </mxCell>
        <mxCell id="3B8MAYeGz_wciXL-b6bd-32" value="" style="rounded=1;whiteSpace=wrap;html=1;fontStyle=1;container=0;" parent="1" vertex="1">
          <mxGeometry x="293.2" y="1123.55" width="39.55" height="30" as="geometry" />
        </mxCell>
        <mxCell id="3B8MAYeGz_wciXL-b6bd-33" value="&lt;font&gt;云层节点&lt;/font&gt;" style="text;html=1;align=center;verticalAlign=middle;whiteSpace=wrap;rounded=0;fontStyle=1;container=0;" parent="1" vertex="1">
          <mxGeometry x="335.86" y="1137.41" width="56.33" height="11.41" as="geometry" />
        </mxCell>
        <mxCell id="3B8MAYeGz_wciXL-b6bd-34" value="" style="shape=image;verticalLabelPosition=bottom;labelBackgroundColor=default;verticalAlign=top;aspect=fixed;imageAspect=0;image=data:image/png,iVBORw0KGgoAAAANSUhEUgAAARwAAAFECAYAAAD1KYF6AAAAAXNSR0IArs4c6QAADolJREFUeF7t3U2S3dYVBOHmOrhLcaSR5ZFG1C65jrYYkoNqNUm8n8IFTuFThEfGK1xkAhltD+wPL/5BAAEEFhH4sOg+boMAAgi8CI6XAAEElhEQnGWo3QgBBATHO4AAAssICM4y1G6EAAKC4x1AAIFlBARnGWo3QgABwfEOIIDAMgKCswy1GyGAgOB4BxBAYBkBwVmG2o0QQEBwvAMIILCMgOAsQ+1GCCAgON4BBBBYRkBwlqF2IwQQEBzvAAIILCMgOMtQuxECCAiOdwABBJYREJxlqN0IAQQExzuAAALLCAjOMtRuhAACguMdQACBZQQEZxlqN0IAAcHxDiCAwDICgrMMtRshgIDgeAcQQGAZAcFZhtqNEEBAcLwDCCCwjIDgLEPtRgggIDjeAQQQWEZAcJahdiMEEBAc7wACCCwjIDjLULsRAggIjncAAQSWERCcZajdCAEEBMc7gAACywgIzjLUboQAAoLjHUAAgWUEBGcZajdCAIEJwXmlCYGTEPjvn+f47SRnGXkMwRmpzaEPJCA6T8AXnCfg+ellCYjOg+oF50FwfnZ5AqLzwCswOji//vrry9d/+QeBPQn8/vvvL1//9Z1/ROdO8KOD8/VZRedO4y5/iIDoPITt3Y/GB0d0Mi+ClW0CorPNaOuKccH59OnTy+fPn989l790tlT79xMEROc5iuOC8+XLl5c//vhDdJ7z7tdPEBCdx+GNDM7XxxWdx6X75fMEROcxhmODIzqPCferHAHRuZ/l6OCIzv3C/SJLQHTu4zk+OKJzn3BX5wmIzu1MK4IjOrcLd+U+BETnNq41wRGd24S7aj8CorPNtio4orMt3BX7EhCdn/OtC47o7PtBWd8mIDo/ZlQZHNHZ/ihcsS8B0fk+39rgiM6+H5T1bQKi855RdXBEZ/ujcMW+BETnLd/64IjOvh+U9W0CovON0SWCIzrbH4Ur9iUgOn/xvUxwRGffD8r6NgHRuVhwRGf7o3DFvgSuHp1L/YXz/1fJ/7TFvh+V9Z8TuHJ0Lhkcf+lIwtEErhqdywZHdI7+5Nz/itG5dHBEx0d/NIGrRefywRGdoz85979SdATn7/fdf5Hswz+SwFWiIzj/eMtE58hPzr2vEB3B+dd7Ljo+/CMJtEdHcL7zdonOkZ+cezdHR3B+8H6Ljg//SAKt0RGcn7xVonPkJ+fejdERnI33WnR8+EcSaIuO4NzwNonODZBcshuBpugIzo2viejcCMpluxBoiY7g3PF6iM4dsFwaJ9AQHcG587UQnTuBuTxKYHp0BOeB1+FH0Xlgyk8QSBL4759jvyUH01uC8yBR0XkQnJ/tTeDU3/SpD/e3mdd/Gvry5cvewm7eF52bUblwHYFTf9OnPtzZg/P1fB8/flz3KrkTAtsETv1Nn/pwE4Pz+vrmD7Lt18MVCDxB4MOHd5/wqb/pUx9OcJ54E/30EgQEJ6/5tP8dzvf+I5W/cPIvgMUfExCc/NshOHmmFksICE5epODkmVosISA4eZGCk2dqsYSA4ORFCk6eqcUSAoKTFyk4eaYWSwgITl6k4OSZWiwhIDh5kYKTZ2qxhIDg5EUKTp6pxRICgpMXKTh5phZLCAhOXqTg5JlaLCEgOHmRgpNnarGEgODkRQpOnqnFEgKCkxcpOHmmFksICE5epODkmVosISA4eZGCk2dqsYSA4ORFCk6eqcUSAoKTFyk4eaYWSwgITl6k4OSZWiwhIDh5kYKTZ2qxhIDg5EUKTp6pxRICgpMXKTh5phZLCAhOXqTg5JlaLCEgOHmRgpNnarGEgODkRQpOnqnFEgKCkxcpOHmmFksICE5epODkmVosISA4eZGCk2dqsYSA4ORFCk6eqcUSAoKTFyk4eaYWSwgITl6k4OSZWiwhIDh5kYKTZ2qxhIDg5EUKTp6pxRICgpMXKTh5phZLCAhOXqTg5JlaLCEgOHmRgpNnarGEgODkRQpOnqnFEgKCkxcpOHmmFksICE5epODkmVosISA4eZGCk2dqsYSA4ORFCk6eqcUSAoKTFyk4eaYWSwgITl6k4OSZWiwhIDh5kYKTZ2qxhIDg5EUKTp6pxRICgpMXKTh5phZLCAhOXqTg5JlaLCEgOHmRgpNnarGEgODkRQpOnqnFEgKCkxcpOHmmFksICE5epODkmVosISA4eZGCk2dqsYSA4ORFCk6eqcUSAoKTFyk4eaYWSwgITl6k4OSZWiwhIDh5kYKTZ2qxhIDg5EUKTp6pxRICgpMXKTh5phZLCAhOXqTg5JlaLCEgOHmRgpNnarGEgODkRQpOnqnFEgKCkxcpOHmmFksICE5epODkmVosISA4eZGCk2dqsYSA4ORFCk6eqcUSAoKTFyk4eaYWSwgITl6k4OSZWiwhIDh5kYKTZ2qxhIDg5EUKTp6pxRICgpMXKTh5phZLCAhOXqTg5JlaLCEgOHmRgpNnarGEgODkRQpOnqnFEgKCkxcpOHmmFksICE5epODkmVosISA4eZGCk2dqsYSA4ORFCk6eqcUSAoKTFyk4eaYWSwgITl6k4OSZWiwhIDh5kYKTZ2qxhIDg5EUKTp6pxRICgpMXKTh5phZLCAhOXqTg5JlaLCEgOHmRgpNnarGEgODkRQpOnqnFEgKCkxcpOHmmFksICE5epODkmVosISA4eZGCk2dqsYSA4ORFCk6eqcUSAoKTFyk4eaYWSwgITl6k4OSZWiwhIDh5kYKTZ2qxhIDg5EUKTp6pxRICgpMXKTh5phZLCAhOXqTg5JlaLCEgOHmRgpNnarGEgODkRQpOnqnFEgKCkxcpOHmmFksICE5epODkmVosISA4eZGCk2dqsYSA4ORFCk6eqcUSAoKTFyk4eaYWSwgITl6k4OSZWiwhIDh5kYKTZ2qxhIDg5EUKTp6pxRICgpMXKTh5phZLCAhOXqTg5JlaLCEgOHmRgpNnarGEgODkRQpOnqnFEgKCkxcpOHmmFksICE5epODkmVosISA4eZGCk2dqsYSA4ORFCk6eqcUSAoKTFyk4eaYWSwgITl6k4OSZWiwhIDh5kYKTZ2qxhIDg5EUKTp6pxRICgpMXKTh5phZLCAhOXqTg5JlaLCEgOHmRgpNnarGEgODkRQpOnqnFEgKCkxcpOHmmFksICE5epODkmVosISA4eZGCk2dqsYSA4ORFCk6eqcUSAoKTFyk4eaYWSwgITl6k4OSZWiwhIDh5kYKTZ2qxhIDg5EUKTp6pxRICgpMXKTh5phZLCAhOXqTg5JlaLCEgOHmRgpNnarGEgODkRQpOnqnFEgKCkxcpOHmmFksICE5epODkmVosISA4eZGCk2dqsYSA4ORFCk6eqcUSAoKTFyk4eaYWSwgITl6k4OSZWiwhIDh5kYKTZ2qxhIDg5EUKTp6pxRICgpMXKTh5phZLCAhOXqTg5JlaLCEgOHmRgpNnarGEgODkRQpOnqnFEgKCkxcpOHmmFksICE5epODkmVosISA4eZGCk2dqsYSA4ORFCk6eqcUSAoKTFyk4eaYWSwgITl6k4OSZWiwhIDh5kYKTZ2qxhIDg5EUKTp6pxRICgpMXKTh5phZLCAhOXqTg5JlaLCEgOHmRb4Lz6dOnl19++SV/lwcXP378+OaXr69vjvvgqp8hcBsBwbmN0z1XvfuCzxQdwblHpWvTBAQnTfTl5beXl5f//Hv2LNERnLxwi7cTEJzbWd1z5WmjIzj3aHRtmoDgpIl+2ztldARnP+GWtwkIzjajZ644XXQE5xmdfvssAcF5luD2708VHcHZFuaK/QgIzn5s/7l8mugIzhrh7vJ9AoKz7s04RXQEZ51wd3pPQHDWvhWHR0dw1gp3t7cEBGf9G3FodARnvXB3/EZAcI55Gw6LjuAcI9xd/yIgOMe9CYdER3COE+7OgnP0O7A8OoJztPJr399fOMf7XxodwTle+JVPIDjnsL8sOoJzDuFXPYXgnMf8kugIznmEX/EkgnMu67tHR3DOJfxqpxGc8xnfNTqCcz7hVzqR4JzT9m7REZxzCr/KqQTnvKZ3iY7gnFf4FU4mOOe2HI+O4JxbePvpBOf8hqPREZzzC28+oeDMsBuLjuDMEN56SsGZYzYSHcGZI7zxpIIzy+rT0RGcWcLbTis484w+FR3BmSe86cSCM9Pmw9ERnJnCW04tOHNNPhQdwZkrvOHkgjPb4t3REZzZwqefXnCmG7zz/8tccOYLn/wEgjPZ3rez3/yXjuB0CJ/6FIIz1dz7c98UHcHpET7xSQRnorUfn3kzOoLTJXza0wjONGPb5/1pdARnG6Ar9iMgOPuxPXL5h9H5/Pnzm3O9vr4eeU73vhgBwekV/t3o/PtxBaf3BTjjkwnOGa3kzrQZHcHJwba0TUBwthlNv+Kn0RGc6XpnnV9wZvl69LSbf+k8Oux3CDxJ4MOTv9/156c+3K5P/vy46DzP0EKewKm/6VMfLu8ivig6caQGnyRw6m/61Id7Evyqn4vOKtLucwuBU3/Tpz7cLXRdgwACcwgIzhxXTorAeAKCM16hB0BgDgHBmePKSREYT0Bwxiv0AAjMISA4c1w5KQLjCQjOeIUeAIE5BARnjisnRWA8AcEZr9ADIDCHgODMceWkCIwnIDjjFXoABOYQEJw5rpwUgfEEBGe8Qg+AwBwCgjPHlZMiMJ6A4IxX6AEQmENAcOa4clIExhMQnPEKPQACcwgIzhxXTorAeAKCM16hB0BgDgHBmePKSREYT0Bwxiv0AAjMISA4c1w5KQLjCQjOeIUeAIE5BARnjisnRWA8AcEZr9ADIDCHgODMceWkCIwnIDjjFXoABOYQEJw5rpwUgfEEBGe8Qg+AwBwCgjPHlZMiMJ6A4IxX6AEQmENAcOa4clIExhMQnPEKPQACcwgIzhxXTorAeAKCM16hB0BgDgHBmePKSREYT0Bwxiv0AAjMISA4c1w5KQLjCQjOeIUeAIE5BARnjisnRWA8gf8BrBRdri7OPKMAAAAASUVORK5CYII=;container=0;" parent="1" vertex="1">
          <mxGeometry x="397.4" y="1114" width="43.05" height="49.11" as="geometry" />
        </mxCell>
        <mxCell id="3B8MAYeGz_wciXL-b6bd-35" value="&lt;font&gt;边缘端节点&lt;/font&gt;" style="text;html=1;align=center;verticalAlign=middle;whiteSpace=wrap;rounded=0;fontStyle=1;container=0;" parent="1" vertex="1">
          <mxGeometry x="430.8" y="1137.4099999999999" width="78" height="11.41" as="geometry" />
        </mxCell>
        <mxCell id="3B8MAYeGz_wciXL-b6bd-38" value="" style="verticalLabelPosition=bottom;verticalAlign=top;html=1;shape=mxgraph.basic.diag_round_rect;dx=6;whiteSpace=wrap;fontStyle=1;container=0;" parent="1" vertex="1">
          <mxGeometry x="297.98" y="1162.5" width="30" height="30" as="geometry" />
        </mxCell>
        <mxCell id="3B8MAYeGz_wciXL-b6bd-39" value="&lt;font&gt;设备&lt;/font&gt;" style="text;html=1;align=center;verticalAlign=middle;whiteSpace=wrap;rounded=0;fontStyle=1;container=0;" parent="1" vertex="1">
          <mxGeometry x="327.48" y="1171" width="47.99" height="21" as="geometry" />
        </mxCell>
        <mxCell id="3B8MAYeGz_wciXL-b6bd-40" value="" style="sketch=0;points=[[0,0,0],[0.25,0,0],[0.5,0,0],[0.75,0,0],[1,0,0],[0,1,0],[0.25,1,0],[0.5,1,0],[0.75,1,0],[1,1,0],[0,0.25,0],[0,0.5,0],[0,0.75,0],[1,0.25,0],[1,0.5,0],[1,0.75,0]];outlineConnect=0;fillColor=#f8cecc;strokeColor=#b85450;dashed=0;verticalLabelPosition=bottom;verticalAlign=top;align=center;html=1;fontSize=12;fontStyle=0;aspect=fixed;shape=mxgraph.aws4.resourceIcon;resIcon=mxgraph.aws4.mq;container=0;" parent="1" vertex="1">
          <mxGeometry x="519.36" y="1120.9199999999998" width="35.27" height="35.27" as="geometry" />
        </mxCell>
        <mxCell id="3B8MAYeGz_wciXL-b6bd-41" value="&lt;font&gt;消息队列&lt;/font&gt;" style="text;html=1;align=center;verticalAlign=middle;whiteSpace=wrap;rounded=0;fontStyle=1;container=0;" parent="1" vertex="1">
          <mxGeometry x="551.63" y="1137.41" width="67.23" height="11.41" as="geometry" />
        </mxCell>
        <mxCell id="3B8MAYeGz_wciXL-b6bd-43" value="&lt;font&gt;工作负载&lt;/font&gt;" style="text;html=1;align=center;verticalAlign=middle;whiteSpace=wrap;rounded=0;fontStyle=1;container=0;" parent="1" vertex="1">
          <mxGeometry x="543.71" y="1170" width="80.92" height="18.63" as="geometry" />
        </mxCell>
        <mxCell id="3B8MAYeGz_wciXL-b6bd-22" value="&lt;font style=&quot;font-size: 24px;&quot;&gt;c&lt;sub style=&quot;&quot;&gt;1&lt;/sub&gt;&lt;/font&gt;" style="text;html=1;align=center;verticalAlign=middle;resizable=1;points=[];autosize=1;strokeColor=none;fillColor=none;movable=1;rotatable=1;deletable=1;editable=1;locked=0;connectable=1;container=0;" parent="1" vertex="1">
          <mxGeometry x="665.0016636131767" y="844.4994394046389" width="50" height="50" as="geometry" />
        </mxCell>
        <mxCell id="3B8MAYeGz_wciXL-b6bd-7" value="" style="rounded=1;whiteSpace=wrap;html=1;fillColor=#dae8fc;strokeColor=#6c8ebf;movable=1;resizable=1;rotatable=1;deletable=1;editable=1;locked=0;connectable=1;container=0;" parent="1" vertex="1">
          <mxGeometry x="405.46" y="976.39" width="42.82" height="35.17" as="geometry" />
        </mxCell>
        <mxCell id="3B8MAYeGz_wciXL-b6bd-64" value="" style="edgeStyle=orthogonalEdgeStyle;rounded=0;orthogonalLoop=1;jettySize=auto;html=1;exitX=1;exitY=0.25;exitDx=0;exitDy=0;exitPerimeter=0;entryX=0.1;entryY=0.261;entryDx=0;entryDy=0;entryPerimeter=0;dashed=1;strokeWidth=2;" parent="1" source="3B8MAYeGz_wciXL-b6bd-10" target="3B8MAYeGz_wciXL-b6bd-46" edge="1">
          <mxGeometry relative="1" as="geometry" />
        </mxCell>
        <mxCell id="3B8MAYeGz_wciXL-b6bd-10" value="" style="sketch=0;points=[[0,0,0],[0.25,0,0],[0.5,0,0],[0.75,0,0],[1,0,0],[0,1,0],[0.25,1,0],[0.5,1,0],[0.75,1,0],[1,1,0],[0,0.25,0],[0,0.5,0],[0,0.75,0],[1,0.25,0],[1,0.5,0],[1,0.75,0]];outlineConnect=0;fillColor=#f8cecc;strokeColor=#b85450;dashed=0;verticalLabelPosition=bottom;verticalAlign=top;align=center;html=1;fontSize=12;fontStyle=0;aspect=fixed;shape=mxgraph.aws4.resourceIcon;resIcon=mxgraph.aws4.mq;container=0;" parent="1" vertex="1">
          <mxGeometry x="325.52" y="900" width="49.44" height="49.44" as="geometry" />
        </mxCell>
        <mxCell id="3B8MAYeGz_wciXL-b6bd-15" value="" style="verticalLabelPosition=bottom;verticalAlign=top;html=1;shape=mxgraph.basic.diag_round_rect;dx=6;whiteSpace=wrap;container=0;" parent="1" vertex="1">
          <mxGeometry x="401.46" y="1056" width="41.92" height="50" as="geometry" />
        </mxCell>
        <mxCell id="3B8MAYeGz_wciXL-b6bd-16" value="" style="image;html=1;image=img/lib/clip_art/networking/Ip_Camera_128x128.png;container=0;" parent="1" vertex="1">
          <mxGeometry x="415.46" y="1066" width="40" height="40" as="geometry" />
        </mxCell>
        <mxCell id="3B8MAYeGz_wciXL-b6bd-17" value="" style="endArrow=classic;html=1;rounded=0;entryX=0.5;entryY=1;entryDx=0;entryDy=0;endSize=6;startSize=3;dashed=1;exitX=0.59;exitY=-0.018;exitDx=0;exitDy=0;exitPerimeter=0;strokeWidth=2;" parent="1" source="3B8MAYeGz_wciXL-b6bd-15" target="3B8MAYeGz_wciXL-b6bd-7" edge="1">
          <mxGeometry width="50" height="50" relative="1" as="geometry">
            <mxPoint x="422.01862182556977" y="993.0585542130302" as="sourcePoint" />
            <mxPoint x="392.95199098436615" y="994.8865060203782" as="targetPoint" />
          </mxGeometry>
        </mxCell>
        <mxCell id="3B8MAYeGz_wciXL-b6bd-56" value="" style="aspect=fixed;sketch=0;html=1;dashed=0;whitespace=wrap;verticalLabelPosition=bottom;verticalAlign=top;fillColor=#2875E2;strokeColor=#ffffff;points=[[0.005,0.63,0],[0.1,0.2,0],[0.9,0.2,0],[0.5,0,0],[0.995,0.63,0],[0.72,0.99,0],[0.5,1,0],[0.28,0.99,0]];shape=mxgraph.kubernetes.icon2;prIcon=pod" parent="1" vertex="1">
          <mxGeometry x="449.40227504968203" y="940.0000281345124" width="49.39846086159938" height="47.42252242713541" as="geometry" />
        </mxCell>
        <mxCell id="3B8MAYeGz_wciXL-b6bd-59" value="" style="endArrow=classic;html=1;rounded=0;entryX=0.5;entryY=1;entryDx=0;entryDy=0;endSize=6;startSize=3;dashed=1;exitX=0;exitY=0.5;exitDx=0;exitDy=0;strokeWidth=2;entryPerimeter=0;" parent="1" source="3B8MAYeGz_wciXL-b6bd-7" target="3B8MAYeGz_wciXL-b6bd-10" edge="1">
          <mxGeometry width="50" height="50" relative="1" as="geometry">
            <mxPoint x="438" y="1109" as="sourcePoint" />
            <mxPoint x="368.47" y="993.97" as="targetPoint" />
            <Array as="points">
              <mxPoint x="350" y="994" />
            </Array>
          </mxGeometry>
        </mxCell>
        <mxCell id="3B8MAYeGz_wciXL-b6bd-61" style="edgeStyle=orthogonalEdgeStyle;rounded=0;orthogonalLoop=1;jettySize=auto;html=1;exitX=0.5;exitY=0;exitDx=0;exitDy=0;exitPerimeter=0;entryX=0.5;entryY=1;entryDx=0;entryDy=0;entryPerimeter=0;dashed=1;strokeWidth=2;" parent="1" target="3B8MAYeGz_wciXL-b6bd-10" edge="1">
          <mxGeometry relative="1" as="geometry">
            <mxPoint x="350.2399999999999" y="975.27" as="sourcePoint" />
          </mxGeometry>
        </mxCell>
        <mxCell id="3B8MAYeGz_wciXL-b6bd-62" value="" style="group" parent="1" vertex="1" connectable="0">
          <mxGeometry x="400.0010066912825" y="899.9951591786773" width="49.3984608615994" height="63.42484082132273" as="geometry" />
        </mxCell>
        <mxCell id="3B8MAYeGz_wciXL-b6bd-46" value="" style="aspect=fixed;sketch=0;html=1;dashed=0;whitespace=wrap;verticalLabelPosition=bottom;verticalAlign=top;fillColor=#2875E2;strokeColor=#ffffff;points=[[0.005,0.63,0],[0.1,0.2,0],[0.9,0.2,0],[0.5,0,0],[0.995,0.63,0],[0.72,0.99,0],[0.5,1,0],[0.28,0.99,0]];shape=mxgraph.kubernetes.icon2;prIcon=pod;container=0;" parent="3B8MAYeGz_wciXL-b6bd-62" vertex="1">
          <mxGeometry width="49.39846086159938" height="47.42252242713541" as="geometry" />
        </mxCell>
        <mxCell id="3B8MAYeGz_wciXL-b6bd-51" value="&lt;font style=&quot;color: light-dark(rgb(255, 255, 255), rgb(237, 237, 237)); font-size: 6px;&quot;&gt;manger&lt;/font&gt;" style="text;html=1;align=center;verticalAlign=middle;resizable=0;points=[];autosize=1;strokeColor=none;fillColor=none;container=0;" parent="3B8MAYeGz_wciXL-b6bd-62" vertex="1">
          <mxGeometry x="4.703712508280319" y="23.4261137880942" width="40" height="30" as="geometry" />
        </mxCell>
        <mxCell id="3B8MAYeGz_wciXL-b6bd-103" value="&lt;span style=&quot;color: rgb(71, 71, 71); font-family: Arial, sans-serif; font-style: normal; font-variant-ligatures: normal; font-variant-caps: normal; font-weight: 400; letter-spacing: normal; orphans: 2; text-align: left; text-indent: 0px; text-transform: none; widows: 2; word-spacing: 0px; -webkit-text-stroke-width: 0px; white-space: normal; background-color: rgb(255, 255, 255); text-decoration-thickness: initial; text-decoration-style: initial; text-decoration-color: initial; float: none; display: inline !important;&quot;&gt;&lt;font style=&quot;font-size: 16px;&quot;&gt;①&lt;/font&gt;&lt;/span&gt;" style="text;whiteSpace=wrap;html=1;" parent="3B8MAYeGz_wciXL-b6bd-62" vertex="1">
          <mxGeometry x="-16.001006691282498" y="20.424840821322732" width="50" height="40" as="geometry" />
        </mxCell>
        <mxCell id="3B8MAYeGz_wciXL-b6bd-63" value="&lt;font&gt;mosquitto&lt;/font&gt;" style="text;html=1;align=center;verticalAlign=middle;whiteSpace=wrap;rounded=0;movable=1;resizable=1;rotatable=1;deletable=1;editable=1;locked=0;connectable=1;container=0;" parent="1" vertex="1">
          <mxGeometry x="327.6338553218515" y="880.7968674652689" width="45.21475908631683" height="19.19349397715298" as="geometry" />
        </mxCell>
        <mxCell id="3B8MAYeGz_wciXL-b6bd-67" style="edgeStyle=orthogonalEdgeStyle;rounded=0;orthogonalLoop=1;jettySize=auto;html=1;exitX=0.015;exitY=0.527;exitDx=0;exitDy=0;exitPerimeter=0;dashed=1;strokeColor=light-dark(#b3e184, #436697);strokeWidth=2;" parent="1" source="3B8MAYeGz_wciXL-b6bd-46" target="3B8MAYeGz_wciXL-b6bd-10" edge="1">
          <mxGeometry relative="1" as="geometry" />
        </mxCell>
        <mxCell id="3B8MAYeGz_wciXL-b6bd-68" style="edgeStyle=orthogonalEdgeStyle;rounded=0;orthogonalLoop=1;jettySize=auto;html=1;exitX=1;exitY=0.75;exitDx=0;exitDy=0;exitPerimeter=0;dashed=1;strokeColor=light-dark(#77B2FF,#436697);strokeWidth=2;" parent="1" source="3B8MAYeGz_wciXL-b6bd-10" target="3B8MAYeGz_wciXL-b6bd-56" edge="1">
          <mxGeometry relative="1" as="geometry">
            <mxPoint x="411" y="935" as="sourcePoint" />
            <mxPoint x="385" y="935" as="targetPoint" />
            <Array as="points">
              <mxPoint x="380" y="937" />
              <mxPoint x="380" y="956" />
            </Array>
          </mxGeometry>
        </mxCell>
        <mxCell id="3B8MAYeGz_wciXL-b6bd-91" value="&lt;font style=&quot;font-size: 14px;&quot;&gt;edgecore&lt;/font&gt;" style="rounded=0;whiteSpace=wrap;html=1;" parent="1" vertex="1">
          <mxGeometry x="414" y="852.3" width="78.53" height="34.5" as="geometry" />
        </mxCell>
        <mxCell id="3B8MAYeGz_wciXL-b6bd-69" value="" style="shape=cube;whiteSpace=wrap;html=1;boundedLbl=1;backgroundOutline=1;darkOpacity=0.05;darkOpacity2=0.1;size=30;rotation=0;movable=1;resizable=1;rotatable=1;deletable=1;editable=1;locked=0;connectable=1;container=0;" parent="1" vertex="1">
          <mxGeometry x="550" y="900" width="200" height="146.75" as="geometry" />
        </mxCell>
        <mxCell id="3B8MAYeGz_wciXL-b6bd-70" value="&lt;font style=&quot;font-size: 24px;&quot;&gt;&lt;font style=&quot;&quot;&gt;e&lt;/font&gt;&lt;sub style=&quot;&quot;&gt;2&lt;/sub&gt;&lt;/font&gt;" style="text;html=1;align=center;verticalAlign=middle;resizable=1;points=[];autosize=1;strokeColor=none;fillColor=none;movable=1;rotatable=1;deletable=1;editable=1;locked=0;connectable=1;container=0;" parent="1" vertex="1">
          <mxGeometry x="600.0238872723355" y="925" width="50" height="50" as="geometry" />
        </mxCell>
        <mxCell id="3B8MAYeGz_wciXL-b6bd-75" value="" style="sketch=0;points=[[0,0,0],[0.25,0,0],[0.5,0,0],[0.75,0,0],[1,0,0],[0,1,0],[0.25,1,0],[0.5,1,0],[0.75,1,0],[1,1,0],[0,0.25,0],[0,0.5,0],[0,0.75,0],[1,0.25,0],[1,0.5,0],[1,0.75,0]];outlineConnect=0;fillColor=#f8cecc;strokeColor=#b85450;dashed=0;verticalLabelPosition=bottom;verticalAlign=top;align=center;html=1;fontSize=12;fontStyle=0;aspect=fixed;shape=mxgraph.aws4.resourceIcon;resIcon=mxgraph.aws4.mq;container=0;" parent="1" vertex="1">
          <mxGeometry x="602.3000000000001" y="982.42" width="49.44" height="49.44" as="geometry" />
        </mxCell>
        <mxCell id="3B8MAYeGz_wciXL-b6bd-79" value="" style="aspect=fixed;sketch=0;html=1;dashed=0;whitespace=wrap;verticalLabelPosition=bottom;verticalAlign=top;fillColor=#2875E2;strokeColor=#ffffff;points=[[0.005,0.63,0],[0.1,0.2,0],[0.9,0.2,0],[0.5,0,0],[0.995,0.63,0],[0.72,0.99,0],[0.5,1,0],[0.28,0.99,0]];shape=mxgraph.kubernetes.icon2;prIcon=pod;container=0;" parent="1" vertex="1">
          <mxGeometry x="680.0022750496821" y="983.4300281345123" width="49.39846086159938" height="47.42252242713541" as="geometry" />
        </mxCell>
        <mxCell id="3B8MAYeGz_wciXL-b6bd-85" value="&lt;font&gt;mosquitto&lt;/font&gt;" style="text;html=1;align=center;verticalAlign=middle;whiteSpace=wrap;rounded=0;movable=1;resizable=1;rotatable=1;deletable=1;editable=1;locked=0;connectable=1;container=0;" parent="1" vertex="1">
          <mxGeometry x="604.4138553218515" y="963.2268674652689" width="45.21475908631683" height="19.19349397715298" as="geometry" />
        </mxCell>
        <mxCell id="3B8MAYeGz_wciXL-b6bd-87" style="edgeStyle=orthogonalEdgeStyle;rounded=0;orthogonalLoop=1;jettySize=auto;html=1;dashed=1;strokeColor=light-dark(#b3e184, #436697);exitX=1;exitY=0.5;exitDx=0;exitDy=0;exitPerimeter=0;entryX=-0.006;entryY=0.501;entryDx=0;entryDy=0;entryPerimeter=0;" parent="1" source="3B8MAYeGz_wciXL-b6bd-75" target="3B8MAYeGz_wciXL-b6bd-79" edge="1">
          <mxGeometry relative="1" as="geometry">
            <mxPoint x="687.7800000000001" y="945" as="sourcePoint" />
            <mxPoint x="661.7800000000001" y="945" as="targetPoint" />
            <Array as="points">
              <mxPoint x="660" y="1007" />
              <mxPoint x="660" y="1007" />
            </Array>
          </mxGeometry>
        </mxCell>
        <mxCell id="3B8MAYeGz_wciXL-b6bd-92" value="&lt;font style=&quot;font-size: 14px;&quot;&gt;edgecore&lt;/font&gt;" style="rounded=0;whiteSpace=wrap;html=1;container=0;" parent="1" vertex="1">
          <mxGeometry x="660" y="941.89" width="78.53" height="34.5" as="geometry" />
        </mxCell>
        <mxCell id="3B8MAYeGz_wciXL-b6bd-94" value="" style="sketch=0;points=[[0,0,0],[0.25,0,0],[0.5,0,0],[0.75,0,0],[1,0,0],[0,1,0],[0.25,1,0],[0.5,1,0],[0.75,1,0],[1,1,0],[0,0.25,0],[0,0.5,0],[0,0.75,0],[1,0.25,0],[1,0.5,0],[1,0.75,0]];outlineConnect=0;fillColor=#f8cecc;strokeColor=#b85450;dashed=0;verticalLabelPosition=bottom;verticalAlign=top;align=center;html=1;fontSize=12;fontStyle=0;aspect=fixed;shape=mxgraph.aws4.resourceIcon;resIcon=mxgraph.aws4.mq;container=0;" parent="1" vertex="1">
          <mxGeometry x="580" y="812.6400000000001" width="38.92" height="38.92" as="geometry" />
        </mxCell>
        <mxCell id="3B8MAYeGz_wciXL-b6bd-95" value="&lt;font&gt;MQ&lt;/font&gt;" style="text;html=1;align=center;verticalAlign=middle;whiteSpace=wrap;rounded=0;movable=1;resizable=1;rotatable=1;deletable=1;editable=1;locked=0;connectable=1;container=0;" parent="1" vertex="1">
          <mxGeometry x="576.7038553218515" y="797.806867465269" width="45.21475908631683" height="19.19349397715298" as="geometry" />
        </mxCell>
        <mxCell id="3B8MAYeGz_wciXL-b6bd-97" value="&lt;font style=&quot;font-size: 14px;&quot;&gt;cloudcore&lt;/font&gt;" style="rounded=0;whiteSpace=wrap;html=1;" parent="1" vertex="1">
          <mxGeometry x="579.9999999999999" y="853.9999999999999" width="78.53" height="34.5" as="geometry" />
        </mxCell>
        <mxCell id="3B8MAYeGz_wciXL-b6bd-98" value="" style="aspect=fixed;sketch=0;html=1;dashed=0;whitespace=wrap;verticalLabelPosition=bottom;verticalAlign=top;fillColor=#2875E2;strokeColor=#ffffff;points=[[0.005,0.63,0],[0.1,0.2,0],[0.9,0.2,0],[0.5,0,0],[0.995,0.63,0],[0.72,0.99,0],[0.5,1,0],[0.28,0.99,0]];shape=mxgraph.kubernetes.icon2;prIcon=pod;container=0;" parent="1" vertex="1">
          <mxGeometry x="652.2422750496821" y="805.7000281345124" width="49.39846086159938" height="47.42252242713541" as="geometry" />
        </mxCell>
        <mxCell id="3B8MAYeGz_wciXL-b6bd-99" style="edgeStyle=orthogonalEdgeStyle;rounded=0;orthogonalLoop=1;jettySize=auto;html=1;dashed=1;strokeColor=light-dark(#b3e184, #436697);strokeWidth=2;entryX=0.005;entryY=0.63;entryDx=0;entryDy=0;entryPerimeter=0;" parent="1" source="3B8MAYeGz_wciXL-b6bd-94" target="3B8MAYeGz_wciXL-b6bd-98" edge="1">
          <mxGeometry relative="1" as="geometry">
            <mxPoint x="620" y="855.7" as="sourcePoint" />
            <mxPoint x="612" y="1012.7" as="targetPoint" />
            <Array as="points">
              <mxPoint x="619" y="836" />
            </Array>
          </mxGeometry>
        </mxCell>
        <mxCell id="3B8MAYeGz_wciXL-b6bd-88" style="edgeStyle=orthogonalEdgeStyle;rounded=0;orthogonalLoop=1;jettySize=auto;html=1;exitX=0.995;exitY=0.63;exitDx=0;exitDy=0;exitPerimeter=0;dashed=1;strokeColor=light-dark(#b3e184, #436697);entryX=0;entryY=0.5;entryDx=0;entryDy=0;entryPerimeter=0;strokeWidth=2;" parent="1" source="3B8MAYeGz_wciXL-b6bd-46" target="3B8MAYeGz_wciXL-b6bd-75" edge="1">
          <mxGeometry relative="1" as="geometry">
            <mxPoint x="411" y="935" as="sourcePoint" />
            <mxPoint x="520" y="950" as="targetPoint" />
            <Array as="points">
              <mxPoint x="520" y="930" />
              <mxPoint x="520" y="1007" />
            </Array>
          </mxGeometry>
        </mxCell>
        <mxCell id="3B8MAYeGz_wciXL-b6bd-100" style="edgeStyle=orthogonalEdgeStyle;rounded=0;orthogonalLoop=1;jettySize=auto;html=1;exitX=0.995;exitY=0.63;exitDx=0;exitDy=0;exitPerimeter=0;dashed=1;strokeColor=light-dark(#b3e184, #436697);strokeWidth=2;" parent="1" source="3B8MAYeGz_wciXL-b6bd-46" target="3B8MAYeGz_wciXL-b6bd-94" edge="1">
          <mxGeometry relative="1" as="geometry">
            <mxPoint x="459" y="940" as="sourcePoint" />
            <mxPoint x="612" y="1017" as="targetPoint" />
            <Array as="points">
              <mxPoint x="530" y="930" />
              <mxPoint x="530" y="830" />
            </Array>
          </mxGeometry>
        </mxCell>
        <mxCell id="3B8MAYeGz_wciXL-b6bd-101" style="edgeStyle=orthogonalEdgeStyle;rounded=0;orthogonalLoop=1;jettySize=auto;html=1;exitX=1;exitY=0.5;exitDx=0;exitDy=0;dashed=1;strokeColor=light-dark(#FF6060,#436697);strokeWidth=2;entryX=0.5;entryY=1;entryDx=0;entryDy=0;startArrow=classic;startFill=1;" parent="1" source="3B8MAYeGz_wciXL-b6bd-91" target="3B8MAYeGz_wciXL-b6bd-97" edge="1">
          <mxGeometry relative="1" as="geometry">
            <mxPoint x="459" y="940" as="sourcePoint" />
            <mxPoint x="590" y="840" as="targetPoint" />
            <Array as="points">
              <mxPoint x="540" y="869" />
              <mxPoint x="540" y="910" />
              <mxPoint x="620" y="910" />
              <mxPoint x="620" y="889" />
            </Array>
          </mxGeometry>
        </mxCell>
        <mxCell id="3B8MAYeGz_wciXL-b6bd-102" style="edgeStyle=orthogonalEdgeStyle;rounded=0;orthogonalLoop=1;jettySize=auto;html=1;exitX=0.5;exitY=0;exitDx=0;exitDy=0;dashed=1;strokeColor=light-dark(#FF6060,#436697);strokeWidth=2;entryX=0.5;entryY=1;entryDx=0;entryDy=0;startArrow=classic;startFill=1;" parent="1" source="3B8MAYeGz_wciXL-b6bd-92" target="3B8MAYeGz_wciXL-b6bd-97" edge="1">
          <mxGeometry relative="1" as="geometry">
            <mxPoint x="503" y="880" as="sourcePoint" />
            <mxPoint x="629" y="899" as="targetPoint" />
            <Array as="points">
              <mxPoint x="699" y="910" />
              <mxPoint x="619" y="910" />
            </Array>
          </mxGeometry>
        </mxCell>
        <mxCell id="3B8MAYeGz_wciXL-b6bd-108" value="" style="group" parent="1" vertex="1" connectable="0">
          <mxGeometry x="402" y="1161" width="39.99978718100138" height="42.42" as="geometry" />
        </mxCell>
        <mxCell id="3B8MAYeGz_wciXL-b6bd-109" value="" style="aspect=fixed;sketch=0;html=1;dashed=0;whitespace=wrap;verticalLabelPosition=bottom;verticalAlign=top;fillColor=#2875E2;strokeColor=#ffffff;points=[[0.005,0.63,0],[0.1,0.2,0],[0.9,0.2,0],[0.5,0,0],[0.995,0.63,0],[0.72,0.99,0],[0.5,1,0],[0.28,0.99,0]];shape=mxgraph.kubernetes.icon2;prIcon=pod;container=0;" parent="3B8MAYeGz_wciXL-b6bd-108" vertex="1">
          <mxGeometry width="33.03883277614104" height="31.717279465095405" as="geometry" />
        </mxCell>
        <mxCell id="3B8MAYeGz_wciXL-b6bd-110" value="&lt;font style=&quot;color: light-dark(rgb(255, 255, 255), rgb(237, 237, 237)); font-size: 4px;&quot;&gt;manger&lt;/font&gt;" style="text;html=1;align=center;verticalAlign=middle;resizable=0;points=[];autosize=1;strokeColor=none;fillColor=none;container=0;" parent="3B8MAYeGz_wciXL-b6bd-108" vertex="1">
          <mxGeometry x="-3.480212818998618" y="9.207926541439154" width="40" height="30" as="geometry" />
        </mxCell>
        <mxCell id="3B8MAYeGz_wciXL-b6bd-113" value="" style="group" parent="1" vertex="1" connectable="0">
          <mxGeometry x="515.77" y="1161" width="39.99978718100138" height="42.42" as="geometry" />
        </mxCell>
        <mxCell id="3B8MAYeGz_wciXL-b6bd-114" value="" style="aspect=fixed;sketch=0;html=1;dashed=0;whitespace=wrap;verticalLabelPosition=bottom;verticalAlign=top;fillColor=#2875E2;strokeColor=#ffffff;points=[[0.005,0.63,0],[0.1,0.2,0],[0.9,0.2,0],[0.5,0,0],[0.995,0.63,0],[0.72,0.99,0],[0.5,1,0],[0.28,0.99,0]];shape=mxgraph.kubernetes.icon2;prIcon=pod;container=0;" parent="3B8MAYeGz_wciXL-b6bd-113" vertex="1">
          <mxGeometry width="33.03883277614104" height="31.717279465095405" as="geometry" />
        </mxCell>
        <mxCell id="3B8MAYeGz_wciXL-b6bd-116" value="&lt;font&gt;Manager&lt;/font&gt;" style="text;html=1;align=center;verticalAlign=middle;whiteSpace=wrap;rounded=0;fontStyle=1;container=0;" parent="1" vertex="1">
          <mxGeometry x="437.9200000000001" y="1170.15" width="62.94" height="16.7" as="geometry" />
        </mxCell>
        <mxCell id="3B8MAYeGz_wciXL-b6bd-117" value="" style="rounded=0;whiteSpace=wrap;html=1;" parent="1" vertex="1">
          <mxGeometry x="627.39" y="1163.15" width="42.61" height="26.85" as="geometry" />
        </mxCell>
        <mxCell id="3B8MAYeGz_wciXL-b6bd-118" value="&lt;font&gt;&lt;font style=&quot;font-size: 10px;&quot;&gt;KubeEdge&lt;/font&gt;组件&lt;/font&gt;" style="text;html=1;align=center;verticalAlign=middle;whiteSpace=wrap;rounded=0;fontStyle=1;container=0;" parent="1" vertex="1">
          <mxGeometry x="674.37" y="1169" width="80.63" height="11.41" as="geometry" />
        </mxCell>
      </root>
    </mxGraphModel>
  </diagram>
</mxfile>
